<?xml version="1.0" encoding="UTF-8" standalone="no"?>
<!-- Created with Inkscape (http://www.inkscape.org/) -->

<svg
   xmlns:dc="http://purl.org/dc/elements/1.1/"
   xmlns:cc="http://creativecommons.org/ns#"
   xmlns:rdf="http://www.w3.org/1999/02/22-rdf-syntax-ns#"
   xmlns:svg="http://www.w3.org/2000/svg"
   xmlns="http://www.w3.org/2000/svg"
   xmlns:sodipodi="http://sodipodi.sourceforge.net/DTD/sodipodi-0.dtd"
   xmlns:inkscape="http://www.inkscape.org/namespaces/inkscape"
   width="100%"
   height="100%"
   viewBox="0 0 33.912147 24.984643"
   version="1.1"
   id="svg8"
   inkscape:version="0.92.4 (5da689c313, 2019-01-14)"
   sodipodi:docname="jace-medlin.svg">
  <defs
     id="defs2" />
  <sodipodi:namedview
     id="base"
     pagecolor="#ffffff"
     bordercolor="#666666"
     borderopacity="1.0"
     inkscape:pageopacity="0.0"
     inkscape:pageshadow="2"
     inkscape:zoom="2.8"
     inkscape:cx="-22.68642"
     inkscape:cy="47.80213"
     inkscape:document-units="mm"
     inkscape:current-layer="layer1"
     showgrid="false"
     units="px"
     inkscape:window-width="1366"
     inkscape:window-height="705"
     inkscape:window-x="-8"
     inkscape:window-y="-8"
     inkscape:window-maximized="1"
     fit-margin-top="0"
     fit-margin-left="0"
     fit-margin-right="0"
     fit-margin-bottom="0" />
  <g
     inkscape:label="Layer 1"
     inkscape:groupmode="layer"
     id="layer1"
     transform="translate(2.1674042,-284.22689)"
	 style="stroke-width:0.3px;stroke-linecap:round;">
    <path
       style="fill:none;stroke:#000000;stroke-width:0.4px;"
       d="m -1.3000729,292.78952 c 0.50113037,-0.56795 1.31964313,-0.0334 0.63476506,0.65147 -0.91873896,0.55125 -1.37497296,-0.27278 -1.36975626,-0.80182 0.036614,-3.7131 6.9103948,-2.84363 9.7229124,-5.437 2.3067078,-2.12697 1.1691681,-3.88354 -1.1137473,-2.12168 -1.7912954,1.32452 -2.2366764,2.28149 -1.9107228,4.06748 0.3560223,1.83943 2.3127999,4.29946 3.2902644,5.93242 0.1287493,0.21509 0.5720951,0.90623 0.4091823,1.56868 -0.1629125,0.66245 -0.9320834,1.2962 -1.6591424,1.6772 -0.8387894,0.43954 -1.5483529,0.39978 -2.164477,-0.0102 -0.8446464,-0.56205 -0.902871,-2.02769 -0.099903,-3.0324 0.7094787,-0.90242 1.1998421,-1.30105 0.9385129,-2.20471 -0.1488909,-0.32496 -0.4537218,-0.73517 -1.0571122,-0.70121 -0.4481813,0.0322 -0.7683985,0.12571 -1.0051901,0.53096 -0.2264892,0.38761 -0.2651208,0.73399 -0.018328,1.19507 0.2342833,0.50805 0.8805373,0.7954 0.8805373,0.7954"
       id="path3731"
       inkscape:connector-curvature="0"
       sodipodi:nodetypes="ccasccsssscccscc" />
    <path
       style="fill:none;stroke:#000000;"
       d="m 9.6334336,294.00219 c 0,0 -0.3960979,0.0851 -0.5497002,0.17328 -0.2660484,0.15275 -0.6559359,1.08749 -0.3736455,1.58853 0.2520861,0.45833 0.5227524,0.5232 1.0627547,0.42455 0.6395354,-0.11684 0.7811984,-1.12663 0.7811984,-1.12663 0.04318,-0.52071 -0.4891,-1.17099 -0.9206074,-1.05973 0,0 0.5548834,-0.0518 0.8535454,0.60425 0.121409,0.26669 -0.145519,0.53337 0.608076,1.34584 0.397525,0.42857 0.881936,0.0162 0.881936,0.0162"
       id="path3733"
       inkscape:connector-curvature="0"
       sodipodi:nodetypes="cscsccssc" />
    <path
       style="fill:none;stroke:#000000;"
       d="m 12.914689,294.48121 c 0.05383,0.57519 1.103581,0.31776 0.50387,-0.40022 -0.588546,-0.58179 -1.687656,-0.0717 -1.624894,0.81607 0.02801,0.39612 0.175959,1.50925 1.379999,1.26146 0.400795,-0.12067 0.391943,-0.16669 0.391943,-0.16669 0.35441,-0.1569 0.286219,-0.36855 0.286219,-0.36855"
       id="path3735"
       inkscape:connector-curvature="0"
       sodipodi:nodetypes="ccscsc" />
    <path
       style="fill:none;stroke:#000000;"
       d="m 14.002887,294.84432 c 1.659322,0.35725 1.791522,-0.56108 1.429195,-0.76099 -0.367431,-0.33815 -0.966306,-0.1972 -1.287977,0.35198 -0.321667,0.54919 -0.228859,2.01554 0.792127,1.96374 0.640473,0.0543 1.595201,-0.17209 2.104897,-0.85278 0.76471,-1.16073 1.799207,0.14368 1.078305,0.93992 -0.629213,0.43199 -0.920074,-0.65107 -0.261164,-0.47554"
       id="path3737"
       inkscape:connector-curvature="0"
       sodipodi:nodetypes="ccccccc" />
    <g
       id="g84"
       transform="rotate(-6.6456035,8.234262,295.97658)">
      <path
         id="path80"
         style="fill:none;stroke:#000000;stroke-width:0.4px;"
         d="m 11.192669,298.88635 -0.327862,2.74121 m -3.2569565,1.18698 c -0.1080151,-0.76072 -1.3228964,0.13957 -0.2771279,0.72111 1.1001495,0.61179 1.1058057,-1.50353 0.9744443,-2.612 -0.054633,-1.1113 -0.4719134,-2.84216 0.5497995,-3.85274 1.1963716,-1.13875 2.5939516,1.10628 2.3377026,1.81544 -0.146839,0.40636 0.300518,-1.50432 1.525119,-1.7709 3.644491,-0.0638 -1.310346,8.37753 -0.465299,11.90427 0.256041,1.06857 2.182413,1.03861 2.180334,-0.36725 0.07406,-0.93716 -2.804774,-0.78102 -4.217934,0.0575 -1.3918721,0.8259 -1.7777207,-1.19415 -3.382156,-0.54837"
         inkscape:connector-curvature="0"
         sodipodi:nodetypes="cccsccscsccc" />
    </g>
    <path
       style="fill:none;stroke:#000000;"
       d="m 14.607733,300.14707 c 0.733877,0.39487 1.718024,0.29027 1.744793,-0.29921 0.02009,-0.44272 -0.738602,-0.70984 -1.284691,-0.34257 -0.492915,0.33151 -0.495734,0.64176 -0.544163,0.94127 -0.282144,1.76018 1.796465,1.37437 2.38107,0.83047"
       id="path88"
       inkscape:connector-curvature="0"
       sodipodi:nodetypes="cascc" />
    <path
       style="fill:none;stroke:#000000;"
       d="m 18.246817,299.63984 c 0,0 -0.842712,-0.15726 -1.165166,0.87902 -0.294119,0.94522 0.620449,1.48777 1.066683,1.32951 1.249228,-0.37713 1.283223,-5.20803 0.946091,-5.26315 -0.346323,0.0569 -0.969048,1.9859 -0.279655,4.00677 2.203128,6.10792 2.718462,-6.06372 2.121753,-5.37103 -0.874273,2.16387 -0.325436,9.79742 0.04105,10.59975 0.207037,0.94863 0.611578,1.05484 0.962902,0.976 0.747978,-0.16784 0.615721,-1.27839 -0.265927,-0.83994"
       id="path107"
       inkscape:connector-curvature="0"
       sodipodi:nodetypes="cscccccsc" />
    <path
       style="fill:none;stroke:#000000;"
       d="m 22.579311,299.47105 -0.04009,2.24491 v 0"
       id="path138"
       inkscape:connector-curvature="0" />
    <circle
       id="path142"
       cx="22.592678"
       cy="298.561"
       r="0.28976643"
       style="fill:none;stroke:#000000;" />
    <path
       id="path146"
       style="fill:none;stroke:#000000;"
       d="m 23.837492,299.82633 c 1.20336,-1.37527 2.646388,-0.85684 2.711614,0.49418 0.07814,1.92225 -3.864978,5.19711 -1.768113,6.1303 1.998166,0.88927 2.014471,-0.95573 1.158654,-0.60515 -0.90592,0.37111 -0.34489,2.83505 1.901544,1.31531 1.443239,-1.47266 4.013498,-1.3491 3.76345,-0.41141 m -7.751522,-5.00098 v -2.46923"
       inkscape:connector-curvature="0"
       sodipodi:nodetypes="ccsscccc" />
  </g>
</svg>
